# xmcd CD database file
#
# Track frame offsets:
#	187
#	37092
#	57705
#	87675
#	108510
#	140267
#	153095
#
# Disc length: 2496 seconds
#
# Revision: 1
# Processed by: cddbd v1.5.1PL0 Copyright (c) Steve Scherf et al.
# Submitted via: CDex 1.51
#
DISCID=6009be07
DTITLE=Terumasa Hino - City Connection
DYEAR=1986
DGENRE=Jazz
TTITLE0=Hino´s Reggae
TTITLE1=Stay In My Walking Heart
TTITLE2=City Connection
TTITLE3=Send Me Your Feelings
TTITLE4=High Tdie-Manhattan Ecstasy
TTITLE5=Samba De-La Cruz
TTITLE6=Blue Smiles
EXTD=YEAR: 1986
EXTT0=
EXTT1=
EXTT2=
EXTT3=
EXTT4=
EXTT5=
EXTT6=
PLAYORDER=
